<svg xmlns="http://www.w3.org/2000/svg" viewBox="0 0 143.74 33.7"><defs><style>.cls-1{fill:#ed1c24;}</style></defs><g id="Layer_2" data-name="Layer 2"><g id="Layer_1-2" data-name="Layer 1"><path d="M6.44,6.71a.63.63,0,0,0-.62-.14l-2.37.92c-.3.13-1,.7-.92,1s1,.17,1.35.06l2-.78.68.67a2.72,2.72,0,0,1,.65-1Z"/><path d="M7.79,5.9l.79-2c.13-.3.34-1.35,0-1.49s-1,.76-1.12,1.06L6.58,5.81a.62.62,0,0,0,.13.63l.76.75a5.48,5.48,0,0,1,1-.65Z"/><path d="M19.86,26.07a10.73,10.73,0,0,0,2.06,1.24,8.11,8.11,0,0,0,5.4-5.4,11.31,11.31,0,0,0-1.24-2.05,10.22,10.22,0,0,1-6.22,6.21Z"/><path d="M9.82,9.81a5.64,5.64,0,0,1,2.32-1.4,1.31,1.31,0,0,0-.27-.33,2.67,2.67,0,0,0-3.78,3.78,1.64,1.64,0,0,0,.32.27A5.62,5.62,0,0,1,9.82,9.81Z"/><path d="M14.76,19.34a11.06,11.06,0,0,0,1,2.14,8.16,8.16,0,0,0,3.64-2.08,7.73,7.73,0,0,0,2.08-3.65,14.44,14.44,0,0,0-2.11-1,5.76,5.76,0,0,1-1.59,3,5.58,5.58,0,0,1-3,1.56Z"/><path d="M20.73,20.72a10.07,10.07,0,0,1-3.86,2.41,16.69,16.69,0,0,0,1.27,1.43l0,0a8.06,8.06,0,0,0,4.22-2.21,8.18,8.18,0,0,0,2.21-4.21l-.05-.06a16.69,16.69,0,0,0-1.43-1.27,9.66,9.66,0,0,1-2.38,3.89Z"/><path d="M26.94,11.38l-7.37,1,2.54,1.41a3.44,3.44,0,0,0,3.59-.19l1.75-1.22a.34.34,0,0,0,.19-.35.36.36,0,0,0-.13-.35,3.1,3.1,0,0,0-.46-.35c-.06-.06-.08,0-.11,0Z"/><path d="M26.86,2.11l-8.43,8.43a6.92,6.92,0,0,1,.49.86l7.83-1.13A7.07,7.07,0,0,0,32.4,5.54l1.27-3.75A1.33,1.33,0,0,0,33.5.6a1.25,1.25,0,0,0-1-.56,6.93,6.93,0,0,0-5.64,2.07Z"/><path d="M28.18,24.66a3.25,3.25,0,0,1-.73,2.79,3.21,3.21,0,0,1-2.78.73,11.24,11.24,0,0,0,2-1.54A8.87,8.87,0,0,0,28.18,24.66Z"/><path d="M11.38,26.93s-.05.06,0,.08a2.32,2.32,0,0,0,.35.46.35.35,0,0,0,.35.14.38.38,0,0,0,.35-.19l1.22-1.76a3.4,3.4,0,0,0,.19-3.59l-1.41-2.54Z"/><path d="M10.52,18.45l-8.4,8.4A7.28,7.28,0,0,0,0,32.47a1.3,1.3,0,0,0,.56,1,1.33,1.33,0,0,0,1.19.16l3.75-1.27a7,7,0,0,0,4.7-5.62l1.16-7.8a7.32,7.32,0,0,1-.86-.49Z"/><path class="cls-1" d="M17,16.94a4.47,4.47,0,1,0-6.38.06A4.51,4.51,0,0,0,17,16.94Z"/><path d="M48.27,13.82A3.67,3.67,0,0,1,49,16.08,4.62,4.62,0,0,1,48,19a6.1,6.1,0,0,1-2.65,1.91,10.79,10.79,0,0,1-3.91.67h-8.3L36.53,4.73h8a7.07,7.07,0,0,1,4,1A3,3,0,0,1,50,8.35,4,4,0,0,1,49,11a5,5,0,0,1-2.66,1.59A3.22,3.22,0,0,1,48.27,13.82Zm-4.6,3.75a1.8,1.8,0,0,0,.8-1.52A1.21,1.21,0,0,0,43.89,15a2.78,2.78,0,0,0-1.58-.39H38.92l-.69,3.53h3.36A3.46,3.46,0,0,0,43.67,17.57Zm.94-6.69a1.76,1.76,0,0,0,.65-1.42,1.15,1.15,0,0,0-.43-1,1.94,1.94,0,0,0-1.23-.34H40.22l-.65,3.26h3.36A2.53,2.53,0,0,0,44.61,10.88Z"/><path d="M57.13,3.75l-3.55,17.8H49.31l3.55-17.8Z"/><path d="M58.4,21a4.87,4.87,0,0,1-1.78-2A6.55,6.55,0,0,1,56,16a8.17,8.17,0,0,1,.9-3.84,7.11,7.11,0,0,1,2.47-2.74,6.3,6.3,0,0,1,3.47-1,4.06,4.06,0,0,1,4,2.3l.43-2.16h4.24L69,21.55H64.69L65,20a5.45,5.45,0,0,1-4,1.71A4.84,4.84,0,0,1,58.4,21Zm5.93-3.07a3.65,3.65,0,0,0,1.21-1.37,4.06,4.06,0,0,0,.44-1.9,2.81,2.81,0,0,0-.66-1.95A2.24,2.24,0,0,0,63.56,12a2.86,2.86,0,0,0-1.64.51,3.65,3.65,0,0,0-1.2,1.38,4,4,0,0,0-.45,1.87,2.82,2.82,0,0,0,.66,2,2.22,2.22,0,0,0,1.74.73A3,3,0,0,0,64.33,17.93Z"/><path d="M74.14,21A5.1,5.1,0,0,1,72,18.88a6.2,6.2,0,0,1-.75-3.09,7.66,7.66,0,0,1,1-3.83,6.78,6.78,0,0,1,2.63-2.6,7.8,7.8,0,0,1,3.84-.93,6.72,6.72,0,0,1,3.37.8,5,5,0,0,1,2.12,2.27l-3.26,1.8a2.53,2.53,0,0,0-1-1A2.88,2.88,0,0,0,78.53,12a2.65,2.65,0,0,0-2.11,1,3.76,3.76,0,0,0-.84,2.54,3,3,0,0,0,.63,2,2.1,2.1,0,0,0,1.7.76,3,3,0,0,0,2.68-1.47l3,1.83A6.14,6.14,0,0,1,81,20.89a8.21,8.21,0,0,1-3.69.8A6.62,6.62,0,0,1,74.14,21Z"/><path d="M100.19,8.57l-6.12,5.28,3.36,7.7h-5l-1.73-4.8-2,1.73-.63,3.07H83.85L87.4,3.75h4.27l-1.82,9.16,5-4.34Z"/><path d="M113.13,14.06a3.32,3.32,0,0,1,.83,2.31,4.76,4.76,0,0,1-.87,2.84,5.38,5.38,0,0,1-2.47,1.86,10,10,0,0,1-3.74.65h-7.1l3.36-16.8h7a5.65,5.65,0,0,1,3.42.91,3,3,0,0,1,1.21,2.55,4.34,4.34,0,0,1-1.08,3,4.87,4.87,0,0,1-2.9,1.57A3.89,3.89,0,0,1,113.13,14.06Zm-2.27,5.15a3.2,3.2,0,0,0,1.39-2.75,2.2,2.2,0,0,0-1-2,5.15,5.15,0,0,0-2.91-.69H103l-1.28,6.38H107A6.54,6.54,0,0,0,110.86,19.21Zm1.32-12.13a4,4,0,0,0-2.4-.62h-5.3l-1.17,5.85h5.27a5.16,5.16,0,0,0,3.24-.93A3.06,3.06,0,0,0,113,8.83,2.06,2.06,0,0,0,112.18,7.08Z"/><path d="M117.15,16v.07a4.11,4.11,0,0,0,4.36,4.39,6.15,6.15,0,0,0,2.19-.38,5.72,5.72,0,0,0,1.82-1.1l.77,1.05a6.32,6.32,0,0,1-2.19,1.32,7.51,7.51,0,0,1-2.66.46,6.37,6.37,0,0,1-3.08-.72,5,5,0,0,1-2.06-2,6,6,0,0,1-.74-3,7,7,0,0,1,.92-3.56A6.62,6.62,0,0,1,119,10a7.07,7.07,0,0,1,3.52-.91,5.25,5.25,0,0,1,3.94,1.49,5.44,5.44,0,0,1,1.45,4,10.41,10.41,0,0,1-.12,1.44Zm2-4.36a5.29,5.29,0,0,0-1.84,3.09h9.17a4.43,4.43,0,0,0-1-3.13,3.8,3.8,0,0,0-2.94-1.14A5.09,5.09,0,0,0,119.13,11.62Z"/><path d="M130.32,16v.07a4.1,4.1,0,0,0,4.36,4.39,6.15,6.15,0,0,0,2.19-.38,5.72,5.72,0,0,0,1.82-1.1l.77,1.05a6.32,6.32,0,0,1-2.19,1.32,7.55,7.55,0,0,1-2.66.46,6.37,6.37,0,0,1-3.08-.72,5,5,0,0,1-2.06-2,6,6,0,0,1-.74-3,7,7,0,0,1,.92-3.56,6.62,6.62,0,0,1,2.5-2.51,7.07,7.07,0,0,1,3.52-.91,5.25,5.25,0,0,1,3.94,1.49,5.44,5.44,0,0,1,1.45,4,10.41,10.41,0,0,1-.12,1.44Zm2-4.36a5.24,5.24,0,0,0-1.84,3.09h9.16a4.38,4.38,0,0,0-1-3.13,3.8,3.8,0,0,0-2.94-1.14A5.09,5.09,0,0,0,132.3,11.62Z"/><path d="M37.16,26.71h.61l-.36,1.85a3.24,3.24,0,0,1-1.89.66,2.29,2.29,0,0,1-2.38-2.34,2.64,2.64,0,0,1,.39-1.4,3,3,0,0,1,2.54-1.39,2.87,2.87,0,0,1,1,.18,2.51,2.51,0,0,1,.81.52l-.44.5a1.85,1.85,0,0,0-.64-.43A2,2,0,0,0,36,24.7a2.21,2.21,0,0,0-1.88,1.07,2,2,0,0,0-.3,1.07,1.82,1.82,0,0,0,.23.89,1.71,1.71,0,0,0,.64.64,1.87,1.87,0,0,0,.92.23,2.28,2.28,0,0,0,1.23-.39Z"/><path d="M39.92,23.83l-1.06,5.34h-.68l1.06-5.34Z"/><path d="M42.94,25.56a1.54,1.54,0,0,1,.62.62,1.77,1.77,0,0,1,.23.9,2.11,2.11,0,0,1-.29,1.09,2,2,0,0,1-.78.75,2.21,2.21,0,0,1-1.1.27,1.83,1.83,0,0,1-.93-.22,1.52,1.52,0,0,1-.62-.61,1.83,1.83,0,0,1-.22-.91,2.13,2.13,0,0,1,.28-1.09,2,2,0,0,1,.77-.75A2.28,2.28,0,0,1,42,25.34,1.88,1.88,0,0,1,42.94,25.56Zm-1.72.56a1.37,1.37,0,0,0-.51.53,1.62,1.62,0,0,0-.18.77,1.2,1.2,0,0,0,.31.87,1.11,1.11,0,0,0,.84.33,1.34,1.34,0,0,0,.72-.19,1.37,1.37,0,0,0,.51-.53,1.65,1.65,0,0,0,.18-.77,1.2,1.2,0,0,0-.31-.87,1.09,1.09,0,0,0-.83-.34A1.4,1.4,0,0,0,41.22,26.12Z"/><path d="M47.58,25.56a1.5,1.5,0,0,1,.57.6,2,2,0,0,1,.2.89,2.27,2.27,0,0,1-.27,1.1,2,2,0,0,1-.75.78,2,2,0,0,1-1,.28,1.58,1.58,0,0,1-.89-.24,1.24,1.24,0,0,1-.51-.69l-.19.89H44l1.07-5.34h.67L45.32,26a2,2,0,0,1,.63-.49,1.93,1.93,0,0,1,.79-.17A1.55,1.55,0,0,1,47.58,25.56Zm-1.79.55a1.41,1.41,0,0,0-.52.56,1.55,1.55,0,0,0-.2.77,1.19,1.19,0,0,0,.32.86,1.06,1.06,0,0,0,.81.32,1.36,1.36,0,0,0,.74-.21,1.43,1.43,0,0,0,.53-.56,1.45,1.45,0,0,0,.2-.77,1.18,1.18,0,0,0-.32-.85,1.1,1.1,0,0,0-.83-.33A1.35,1.35,0,0,0,45.79,26.11Z"/><path d="M49.32,29a1.41,1.41,0,0,1-.56-.6,1.83,1.83,0,0,1-.2-.89,2.27,2.27,0,0,1,.27-1.1,2.06,2.06,0,0,1,.74-.78,2,2,0,0,1,1-.29,1.59,1.59,0,0,1,.9.25,1.29,1.29,0,0,1,.51.69l.18-.91h.67l-.75,3.81h-.67l.13-.62a1.93,1.93,0,0,1-1.43.66A1.7,1.7,0,0,1,49.32,29Zm1.79-.55a1.5,1.5,0,0,0,.53-.56,1.55,1.55,0,0,0,.19-.78,1.16,1.16,0,0,0-.31-.85,1.08,1.08,0,0,0-.82-.33,1.38,1.38,0,0,0-.74.21,1.58,1.58,0,0,0-.53.56,1.61,1.61,0,0,0-.2.77,1.2,1.2,0,0,0,.32.86,1.11,1.11,0,0,0,.83.32A1.32,1.32,0,0,0,51.11,28.44Z"/><path d="M54.85,23.83l-1.07,5.34h-.67l1.06-5.34Z"/><path d="M61.86,24.13h.79l-1,5h-.62l.8-4.09-2.53,3.56h-.4L57.8,25.07l-.8,4.1h-.62l1-5h.79l1.16,3.59Z"/><path d="M66.06,25.79A1.63,1.63,0,0,1,66.5,27a2.8,2.8,0,0,1-.06.55H63.37a1.14,1.14,0,0,0,.34.82,1.2,1.2,0,0,0,.86.3,1.72,1.72,0,0,0,.6-.1,1.42,1.42,0,0,0,.51-.29l.31.44a2.27,2.27,0,0,1-2.41.29,1.53,1.53,0,0,1-.65-.61,1.84,1.84,0,0,1-.22-.92A2.12,2.12,0,0,1,63,26.38a1.94,1.94,0,0,1,.77-.76,2.07,2.07,0,0,1,1.08-.28A1.64,1.64,0,0,1,66.06,25.79Zm-.43.4a1,1,0,0,0-.79-.29,1.38,1.38,0,0,0-.89.31,1.53,1.53,0,0,0-.53.8h2.47A1.11,1.11,0,0,0,65.63,26.19Z"/><path d="M67.44,29a1.44,1.44,0,0,1-.57-.6,2,2,0,0,1-.2-.89,2.27,2.27,0,0,1,.27-1.1,2,2,0,0,1,.75-.78,2,2,0,0,1,1-.29,1.58,1.58,0,0,1,.89.25,1.29,1.29,0,0,1,.51.69l.5-2.44h.66l-1.06,5.34h-.67l.13-.62a1.83,1.83,0,0,1-.63.48,1.79,1.79,0,0,1-.79.18A1.64,1.64,0,0,1,67.44,29Zm1.79-.55a1.48,1.48,0,0,0,.52-.56,1.55,1.55,0,0,0,.19-.78,1.16,1.16,0,0,0-.31-.85,1.08,1.08,0,0,0-.82-.33,1.35,1.35,0,0,0-.73.21,1.51,1.51,0,0,0-.73,1.33,1.16,1.16,0,0,0,.32.86,1.09,1.09,0,0,0,.83.32A1.36,1.36,0,0,0,69.23,28.44Z"/><path d="M72.64,25.36l-.75,3.81h-.67L72,25.36Zm.22-1.42a.37.37,0,0,1,.09.26.51.51,0,0,1-.51.51.3.3,0,0,1-.24-.11.33.33,0,0,1-.1-.25.49.49,0,0,1,.15-.36.51.51,0,0,1,.36-.15A.36.36,0,0,1,72.86,23.94Z"/><path d="M73.6,29a1.41,1.41,0,0,1-.56-.6,1.83,1.83,0,0,1-.2-.89,2.27,2.27,0,0,1,.27-1.1,2.06,2.06,0,0,1,.74-.78,2,2,0,0,1,1.05-.29,1.59,1.59,0,0,1,.9.25,1.29,1.29,0,0,1,.51.69l.18-.91h.67l-.75,3.81h-.67l.13-.62a1.77,1.77,0,0,1-.64.48,1.73,1.73,0,0,1-.79.18A1.7,1.7,0,0,1,73.6,29Zm1.79-.55a1.5,1.5,0,0,0,.53-.56,1.55,1.55,0,0,0,.19-.78,1.16,1.16,0,0,0-.31-.85,1.08,1.08,0,0,0-.82-.33,1.38,1.38,0,0,0-.74.21,1.58,1.58,0,0,0-.53.56,1.61,1.61,0,0,0-.2.77,1.2,1.2,0,0,0,.32.86,1.12,1.12,0,0,0,.84.32A1.31,1.31,0,0,0,75.39,28.44Z"/><path d="M143.22,7.4V5.86l-.89,1.54H142L141,5.82c0,.34,0,.87,0,1.58h-.52v-2H140v2h-.51v-2h-1.09V4.92h2.67l1.08,1.82,1.06-1.82h.54V7.4Z"/></g></g></svg>