<svg xmlns="http://www.w3.org/2000/svg" viewBox="0 0 52.28 17.16"><defs><style>.cls-1{fill:#ed1c24;}</style></defs><g id="Layer_2" data-name="Layer 2"><g id="Layer_1-2" data-name="Layer 1"><path d="M24.05,4.7a1.49,1.49,0,0,1,.29.92A1.89,1.89,0,0,1,24,6.79a2.52,2.52,0,0,1-1.08.78,4.34,4.34,0,0,1-1.59.27H17.92L19.28,1h3.25a2.85,2.85,0,0,1,1.63.4,1.23,1.23,0,0,1,.59,1.07,1.64,1.64,0,0,1-.42,1.09,2.05,2.05,0,0,1-1.08.64A1.35,1.35,0,0,1,24.05,4.7ZM22.19,6.22a.72.72,0,0,0,.32-.61.49.49,0,0,0-.24-.43A1.16,1.16,0,0,0,21.63,5H20.26L20,6.46h1.36A1.4,1.4,0,0,0,22.19,6.22Zm.38-2.71a.74.74,0,0,0,.26-.58.46.46,0,0,0-.18-.39.77.77,0,0,0-.49-.14H20.78l-.26,1.33h1.36A1.1,1.1,0,0,0,22.57,3.51Z"/><path d="M26.51,6.32h2.9l-.3,1.52H24.43L25.79,1h1.79Z"/><path d="M34.11,7.84l-.27-1.21h-3l-.67,1.21H28.39L32.45,1h1.83L36,7.84ZM31.64,5.27h1.91L33,2.79Z"/><path d="M41.29,1.22a3.13,3.13,0,0,1,1.17.86L41.29,3.33a2.2,2.2,0,0,0-.72-.67,1.65,1.65,0,0,0-.87-.25,2,2,0,0,0-1,.29,2.08,2.08,0,0,0-.75.78,2.16,2.16,0,0,0-.28,1.09,1.87,1.87,0,0,0,.22.92,1.59,1.59,0,0,0,.59.64,1.57,1.57,0,0,0,.86.24,2.12,2.12,0,0,0,.9-.22,3.12,3.12,0,0,0,.88-.58L42,6.69a4.72,4.72,0,0,1-1.42.93A3.9,3.9,0,0,1,39,8a3.33,3.33,0,0,1-1.68-.42,2.92,2.92,0,0,1-1.15-1.16,3.38,3.38,0,0,1-.41-1.66,3.76,3.76,0,0,1,.53-2A3.91,3.91,0,0,1,37.8,1.4a4.2,4.2,0,0,1,2-.5A3.57,3.57,0,0,1,41.29,1.22Z"/><path d="M49.85,1,46.74,3.9l1.84,3.94H46.5L45.28,5.26,44.12,6.34l-.3,1.5H42L43.4,1h1.78L44.6,3.94,47.7,1Z"/><path d="M24.08,12.49a1.48,1.48,0,0,1,.28.92A1.85,1.85,0,0,1,24,14.58a2.5,2.5,0,0,1-1.08.77,4.14,4.14,0,0,1-1.59.28H17.94L19.31,8.8h3.24a2.83,2.83,0,0,1,1.63.4,1.21,1.21,0,0,1,.59,1.07,1.6,1.6,0,0,1-.42,1.08,2,2,0,0,1-1.08.65A1.33,1.33,0,0,1,24.08,12.49ZM22.21,14a.74.74,0,0,0,.32-.61A.49.49,0,0,0,22.3,13a1.12,1.12,0,0,0-.65-.16H20.28L20,14.24h1.36A1.38,1.38,0,0,0,22.21,14Zm.38-2.71a.71.71,0,0,0,.26-.58.45.45,0,0,0-.17-.39.8.8,0,0,0-.5-.14H20.81l-.27,1.33h1.37A1.07,1.07,0,0,0,22.59,11.3Z"/><path d="M30.92,10.22h-3.6l-.27,1.28h3.27L30,12.91H26.77l-.26,1.29h3.71l-.28,1.43H24.45L25.82,8.8H31.2Z"/><path d="M37,10.22h-3.6l-.27,1.28h3.27l-.29,1.41H32.86L32.6,14.2h3.71L36,15.63H30.54L31.91,8.8h5.38Z"/><path d="M3.28,3.41A.33.33,0,0,0,3,3.35l-1.21.46c-.15.07-.52.36-.46.52s.52.09.68,0L3,4l.34.35a1.45,1.45,0,0,1,.33-.5Z"/><path d="M4,3l.4-1c.07-.15.17-.69,0-.76s-.5.39-.57.54L3.35,3a.32.32,0,0,0,.07.32l.38.38a2.39,2.39,0,0,1,.5-.33Z"/><path d="M10.11,13.27a6.29,6.29,0,0,0,1.05.64,4.22,4.22,0,0,0,1.72-1,4.1,4.1,0,0,0,1-1.71,5.73,5.73,0,0,0-.63-1.05,5.21,5.21,0,0,1-3.17,3.16Z"/><path d="M5,5a2.8,2.8,0,0,1,1.18-.72A.67.67,0,0,0,6,4.12a1.32,1.32,0,0,0-1.89,0,1.34,1.34,0,0,0,0,1.9.7.7,0,0,0,.16.14A2.9,2.9,0,0,1,5,5Z"/><path d="M7.52,9.85A5.67,5.67,0,0,0,8,10.94,4.17,4.17,0,0,0,9.85,9.88,3.89,3.89,0,0,0,10.91,8a6.66,6.66,0,0,0-1.07-.49A3,3,0,0,1,9,9.05a2.89,2.89,0,0,1-1.51.8Z"/><path d="M10.55,10.55a5,5,0,0,1-2,1.22,7.27,7.27,0,0,0,.64.73l0,0a4.14,4.14,0,0,0,2.14-1.13,4.1,4.1,0,0,0,1.13-2.15l0,0a6.3,6.3,0,0,0-.73-.65,4.83,4.83,0,0,1-1.21,2Z"/><path d="M13.72,5.79,10,6.33l1.3.71A1.73,1.73,0,0,0,13.08,7l.9-.62a.16.16,0,0,0,.09-.18S14.07,6,14,6a2.15,2.15,0,0,0-.24-.18s0,0,0,0Z"/><path d="M13.68,1.08,9.39,5.37a4.77,4.77,0,0,1,.24.44l4-.58a3.58,3.58,0,0,0,2.87-2.41L17.14.91a.68.68,0,0,0-.08-.6A.65.65,0,0,0,16.55,0a3.53,3.53,0,0,0-2.87,1.06Z"/><path d="M14.35,12.56A1.64,1.64,0,0,1,14,14a1.64,1.64,0,0,1-1.42.38,5.86,5.86,0,0,0,1-.79A4.72,4.72,0,0,0,14.35,12.56Z"/><path d="M5.8,13.71s0,0,0,0A1.5,1.5,0,0,0,6,14a.23.23,0,0,0,.36,0l.62-.89A1.73,1.73,0,0,0,7,11.24L6.32,10Z"/><path d="M5.36,9.4,1.08,13.67A3.69,3.69,0,0,0,0,16.53.64.64,0,0,0,.3,17a.68.68,0,0,0,.6.08l1.91-.64a3.58,3.58,0,0,0,2.4-2.86l.59-4a4.56,4.56,0,0,1-.44-.24Z"/><path class="cls-1" d="M8.63,8.63a2.28,2.28,0,1,0-3.25,0A2.3,2.3,0,0,0,8.63,8.63Z"/><path d="M40.88,11.12h.28V12a1.5,1.5,0,0,1-.41.23,1.6,1.6,0,0,1-.47.08,1.16,1.16,0,0,1-.61-.16,1.07,1.07,0,0,1-.44-.43,1.19,1.19,0,0,1,0-1.19,1.21,1.21,0,0,1,.44-.43,1.33,1.33,0,0,1,.63-.15,1.29,1.29,0,0,1,.47.08,1.47,1.47,0,0,1,.4.24l-.19.23a.87.87,0,0,0-.32-.2.92.92,0,0,0-.36-.07.9.9,0,0,0-.46.12.85.85,0,0,0-.33.32.89.89,0,0,0-.12.45.84.84,0,0,0,.12.45.87.87,0,0,0,.33.33.9.9,0,0,0,.46.12,1.08,1.08,0,0,0,.3,0,1.47,1.47,0,0,0,.28-.14Z"/><path d="M41.58,9.8h.31v2.46h-.31Z"/><path d="M43.54,10.61a.79.79,0,0,1,.32.31,1,1,0,0,1,.11.46,1,1,0,0,1-.11.46.86.86,0,0,1-.32.31.91.91,0,0,1-.47.12.94.94,0,0,1-.47-.12.77.77,0,0,1-.31-.31.94.94,0,0,1,0-.92.71.71,0,0,1,.31-.31.94.94,0,0,1,.47-.12A.91.91,0,0,1,43.54,10.61Zm-.77.23a.56.56,0,0,0-.21.22.66.66,0,0,0-.08.32.73.73,0,0,0,.08.33.63.63,0,0,0,.21.22.58.58,0,0,0,.3.07.64.64,0,0,0,.31-.07.7.7,0,0,0,.2-.22.73.73,0,0,0,.08-.33.66.66,0,0,0-.08-.32.61.61,0,0,0-.2-.22.65.65,0,0,0-.31-.08A.58.58,0,0,0,42.77,10.84Z"/><path d="M45.65,10.61a.79.79,0,0,1,.29.31.87.87,0,0,1,.11.46,1,1,0,0,1-.1.46.69.69,0,0,1-.3.31.8.8,0,0,1-.43.12.88.88,0,0,1-.4-.1.65.65,0,0,1-.26-.26v.35h-.31V9.8h.31v1a.65.65,0,0,1,.26-.26.71.71,0,0,1,.39-.1A.83.83,0,0,1,45.65,10.61Zm-.2,1.31a.63.63,0,0,0,.21-.22.73.73,0,0,0,.08-.33.65.65,0,0,0-.08-.31.58.58,0,0,0-.21-.23.6.6,0,0,0-.6,0,.58.58,0,0,0-.21.23.65.65,0,0,0-.08.31.7.7,0,0,0,.08.33.63.63,0,0,0,.21.22.6.6,0,0,0,.6,0Z"/><path d="M47.39,12.26V12a.74.74,0,0,1-.62.26.66.66,0,0,1-.32-.07.55.55,0,0,1-.21-.19.53.53,0,0,1-.07-.28.44.44,0,0,1,.17-.37.79.79,0,0,1,.49-.14h.55v-.08a.38.38,0,0,0-.11-.29.48.48,0,0,0-.33-.1.91.91,0,0,0-.54.19l-.13-.22a1.25,1.25,0,0,1,.35-.17,1,1,0,0,1,.38-.06.78.78,0,0,1,.51.16.62.62,0,0,1,.18.45v1.16Zm-.19-.35a.41.41,0,0,0,.18-.28v-.17h-.51a.63.63,0,0,0-.31.06.21.21,0,0,0-.1.2.24.24,0,0,0,.1.21.41.41,0,0,0,.28.08A.61.61,0,0,0,47.2,11.91Z"/><path d="M48.09,9.8h.31v2.46h-.31Z"/><path d="M39.27,12.86h.38l.85,1.63.84-1.63h.38v2.32h-.3V13.33l-.83,1.6H40.4l-.83-1.6v1.85h-.3Z"/><path d="M43.51,13.66a1,1,0,0,1,.2.66v.1H42.33a.63.63,0,0,0,.19.38.61.61,0,0,0,.4.14.72.72,0,0,0,.29-.06.63.63,0,0,0,.23-.16l.17.18a.85.85,0,0,1-.31.21,1.06,1.06,0,0,1-.4.08,1,1,0,0,1-.46-.11.74.74,0,0,1-.31-.32A.85.85,0,0,1,42,14.3a.9.9,0,0,1,.11-.46.77.77,0,0,1,.31-.31.84.84,0,0,1,.45-.11A.78.78,0,0,1,43.51,13.66Zm-.07.52a.57.57,0,0,0-.16-.37.56.56,0,0,0-.39-.14.57.57,0,0,0-.57.51Z"/><path d="M45.6,12.72v2.46h-.3v-.35a.7.7,0,0,1-.27.27.84.84,0,0,1-.83,0,.77.77,0,0,1-.3-.32,1,1,0,0,1-.1-.46,1,1,0,0,1,.1-.46.69.69,0,0,1,.3-.31.81.81,0,0,1,.44-.12.71.71,0,0,1,.39.1.75.75,0,0,1,.27.26v-1ZM45,14.85a.56.56,0,0,0,.21-.22.69.69,0,0,0,.08-.32.73.73,0,0,0-.08-.33.56.56,0,0,0-.21-.22.62.62,0,0,0-.31-.08.61.61,0,0,0-.3.08.58.58,0,0,0-.21.23.57.57,0,0,0-.08.32.59.59,0,0,0,.08.32.56.56,0,0,0,.21.22.61.61,0,0,0,.3.08A.62.62,0,0,0,45,14.85Z"/><path d="M46.35,12.78a.25.25,0,0,1,0,.15.24.24,0,0,1,0,.14.19.19,0,0,1-.14,0,.17.17,0,0,1-.14,0,.24.24,0,0,1,0-.14.25.25,0,0,1,0-.15.22.22,0,0,1,.14,0A.24.24,0,0,1,46.35,12.78Zm-.29.65h.31v1.75h-.31Z"/><path d="M47.87,15.18v-.25a.69.69,0,0,1-.61.26.66.66,0,0,1-.32-.07.51.51,0,0,1-.22-.19.6.6,0,0,1-.07-.27.47.47,0,0,1,.17-.38.79.79,0,0,1,.49-.14h.56v-.08a.36.36,0,0,0-.12-.29.47.47,0,0,0-.33-.1.91.91,0,0,0-.54.19l-.13-.21a2,2,0,0,1,.35-.18,1.09,1.09,0,0,1,.38-.05.73.73,0,0,1,.51.16.55.55,0,0,1,.18.45v1.15Zm-.18-.35a.41.41,0,0,0,.18-.27v-.18h-.52a.63.63,0,0,0-.31.06.23.23,0,0,0-.1.2.3.3,0,0,0,.1.22.47.47,0,0,0,.28.08A.65.65,0,0,0,47.69,14.83Z"/><path d="M52.07,2V1.35L51.71,2h-.15l-.38-.64V2H51V1.15h-.21V2h-.21V1.15h-.44V1h1.08l.44.73L52.06,1h.22V2Z"/></g></g></svg>